<svg width="1000" height="1000" viewBox="0 0 1000 1000" fill="none" xmlns="http://www.w3.org/2000/svg">
<g clip-path="url(#clip0_10_10)">
<g clip-path="url(#clip1_10_10)">
<path d="M400.102 845.706L321.01 846C287.512 846.082 256.134 828.153 239.221 799.099L129.917 611.272C90.2711 543.158 90.012 458.491 129.246 390.094L237.23 201.525C253.944 172.413 285.156 154.271 318.866 154.165L397.875 153.918L269.503 377.91C226.135 453.535 226.417 547.266 270.304 622.68L400.102 845.706Z" fill="#737373"/>
<path d="M561.1 845.247L427.486 845.67L290.786 610.778C251.14 542.663 250.881 457.997 290.032 389.647L425.225 153.812L558.839 153.388L485.601 281.106L485.648 281.189L430.537 377.333C387.086 453.005 387.369 546.736 431.255 622.15L561.1 845.258V845.247Z" fill="#737373"/>
<path d="M681.134 844.823L602.125 845.07L730.497 621.078C773.865 545.465 773.583 451.722 729.696 376.309L599.898 153.294L678.99 153C712.488 152.918 743.866 170.847 760.779 199.901L870.083 387.716C909.729 455.831 909.988 540.497 870.754 608.894L762.723 797.392C746.009 826.505 714.797 844.646 681.134 844.823Z" fill="#737373"/>
<path d="M581.536 833.263L514.399 717.906L569.463 621.679C612.914 546.007 612.631 452.275 568.745 376.862L512.95 280.988L579.428 165.196L709.225 388.222C748.872 456.337 749.131 541.003 709.979 609.353L581.548 833.263H581.536Z" fill="#737373"/>
</g>
</g>
<defs>
<clipPath id="clip0_10_10">
<rect width="1000" height="1000" fill="white"/>
</clipPath>
<clipPath id="clip1_10_10">
<rect width="800" height="693" fill="white" transform="translate(100 153)"/>
</clipPath>
</defs>
</svg>
